{"asset":{"version":"2.0","generator":"Blockbench 3.9.3 glTF exporter"},"scenes":[{"nodes":[1,3,5,7,12,14],"name":"blockbench_export"}],"scene":0,"nodes":[{"translation":[-0.1875,-0.375,0.3125],"name":"9b0b9a81-c092-867b-1ced-be40115d0a35","mesh":0},{"translation":[0.1875,0.375,-0.3125],"name":"leg3","children":[0]},{"translation":[0.1875,-0.375,0.3125],"name":"8f9441f8-8d7d-0af9-bb38-8f49f628a5fc","mesh":1},{"translation":[-0.1875,0.375,-0.3125],"name":"leg2","children":[2]},{"translation":[-0.1875,-0.375,-0.4375],"name":"393a3cf3-7371-89d4-b046-8c500bf3dcd7","mesh":2},{"translation":[0.1875,0.375,0.4375],"name":"leg1","children":[4]},{"translation":[0.1875,-0.375,-0.4375],"name":"8d6a338f-2c3e-035c-f063-1ab8cb8fe148","mesh":3},{"translation":[-0.1875,0.375,0.4375],"name":"leg0","children":[6]},{"translation":[0,-0.75,0.375],"name":"a41b3e29-8f02-1966-c0a8-89ee420bb53c","mesh":4},{"translation":[0,-0.75,0.375],"name":"f18c48a0-0b68-3998-fd6c-c27eb11dd575","mesh":5},{"name":"de2de073-ee6b-7b76-e9d2-d9869a19b472","mesh":6},{"name":"668350ac-ed8d-17c8-1861-8254839de70e","mesh":7},{"translation":[0,0.75,-0.375],"name":"head","children":[8,9,10,11]},{"rotation":[-0.7071067811865475,0,0,0.7071067811865476],"translation":[0,-0.8125,-0.125],"name":"28645b44-1ebf-1025-a953-034d1b014141","mesh":8},{"translation":[0,0.8125,0.125],"name":"body","children":[13]}],"bufferViews":[{"buffer":0,"byteOffset":0,"byteLength":432,"target":34962,"byteStride":12},{"buffer":0,"byteOffset":432,"byteLength":432,"target":34962,"byteStride":12},{"buffer":0,"byteOffset":864,"byteLength":288,"target":34962,"byteStride":8},{"buffer":0,"byteOffset":1152,"byteLength":432,"target":34962,"byteStride":12},{"buffer":0,"byteOffset":1584,"byteLength":432,"target":34962,"byteStride":12},{"buffer":0,"byteOffset":2016,"byteLength":288,"target":34962,"byteStride":8},{"buffer":0,"byteOffset":2304,"byteLength":432,"target":34962,"byteStride":12},{"buffer":0,"byteOffset":2736,"byteLength":432,"target":34962,"byteStride":12},{"buffer":0,"byteOffset":3168,"byteLength":288,"target":34962,"byteStride":8},{"buffer":0,"byteOffset":3456,"byteLength":432,"target":34962,"byteStride":12},{"buffer":0,"byteOffset":3888,"byteLength":432,"target":34962,"byteStride":12},{"buffer":0,"byteOffset":4320,"byteLength":288,"target":34962,"byteStride":8},{"buffer":0,"byteOffset":4608,"byteLength":432,"target":34962,"byteStride":12},{"buffer":0,"byteOffset":5040,"byteLength":432,"target":34962,"byteStride":12},{"buffer":0,"byteOffset":5472,"byteLength":288,"target":34962,"byteStride":8},{"buffer":0,"byteOffset":5760,"byteLength":432,"target":34962,"byteStride":12},{"buffer":0,"byteOffset":6192,"byteLength":432,"target":34962,"byteStride":12},{"buffer":0,"byteOffset":6624,"byteLength":288,"target":34962,"byteStride":8},{"buffer":0,"byteOffset":6912,"byteLength":432,"target":34962,"byteStride":12},{"buffer":0,"byteOffset":7344,"byteLength":432,"target":34962,"byteStride":12},{"buffer":0,"byteOffset":7776,"byteLength":288,"target":34962,"byteStride":8},{"buffer":0,"byteOffset":8064,"byteLength":432,"target":34962,"byteStride":12},{"buffer":0,"byteOffset":8496,"byteLength":432,"target":34962,"byteStride":12},{"buffer":0,"byteOffset":8928,"byteLength":288,"target":34962,"byteStride":8},{"buffer":0,"byteOffset":9216,"byteLength":432,"target":34962,"byteStride":12},{"buffer":0,"byteOffset":9648,"byteLength":432,"target":34962,"byteStride":12},{"buffer":0,"byteOffset":10080,"byteLength":288,"target":34962,"byteStride":8}],"buffers":[{"byteLength":10368,"uri":"data:application/octet-stream;base64,"}],"accessors":[{"bufferView":0,"componentType":5126,"count":36,"max":[0.3125,0.375,-0.1875],"min":[0.0625,0,-0.4375],"type":"VEC3"},{"bufferView":1,"componentType":5126,"count":36,"max":[1,1,1],"min":[-1,-1,-1],"type":"VEC3"},{"bufferView":2,"componentType":5126,"count":36,"max":[0.218536376953125,0.56207275390625],"min":[0.000213623046875,0.28948974609375],"type":"VEC2"},{"bufferView":3,"componentType":5126,"count":36,"max":[-0.0625,0.375,-0.1875],"min":[-0.3125,0,-0.4375],"type":"VEC3"},{"bufferView":4,"componentType":5126,"count":36,"max":[1,1,1],"min":[-1,-1,-1],"type":"VEC3"},{"bufferView":5,"componentType":5126,"count":36,"max":[0.218536376953125,0.56207275390625],"min":[0.000213623046875,0.28948974609375],"type":"VEC2"},{"bufferView":6,"componentType":5126,"count":36,"max":[0.3125,0.375,0.5625],"min":[0.0625,0,0.3125],"type":"VEC3"},{"bufferView":7,"componentType":5126,"count":36,"max":[1,1,1],"min":[-1,-1,-1],"type":"VEC3"},{"bufferView":8,"componentType":5126,"count":36,"max":[0.218536376953125,0.56207275390625],"min":[0.000213623046875,0.28948974609375],"type":"VEC2"},{"bufferView":9,"componentType":5126,"count":36,"max":[-0.0625,0.375,0.5625],"min":[-0.3125,0,0.3125],"type":"VEC3"},{"bufferView":10,"componentType":5126,"count":36,"max":[1,1,1],"min":[-1,-1,-1],"type":"VEC3"},{"bufferView":11,"componentType":5126,"count":36,"max":[0.218536376953125,0.56207275390625],"min":[0.000213623046875,0.28948974609375],"type":"VEC2"},{"bufferView":12,"componentType":5126,"count":36,"max":[0.25,1,-0.375],"min":[-0.25,0.5,-0.875],"type":"VEC3"},{"bufferView":13,"componentType":5126,"count":36,"max":[1,1,1],"min":[-1,-1,-1],"type":"VEC3"},{"bufferView":14,"componentType":5126,"count":36,"max":[0.437286376953125,0.99957275390625],"min":[0.000213623046875,0.56292724609375],"type":"VEC2"},{"bufferView":15,"componentType":5126,"count":36,"max":[0.125,0.6875,-0.875],"min":[-0.125,0.5625,-0.9375],"type":"VEC3"},{"bufferView":16,"componentType":5126,"count":36,"max":[1,1,1],"min":[-1,-1,-1],"type":"VEC3"},{"bufferView":17,"componentType":5126,"count":36,"max":[0.355255126953125,0.56207275390625],"min":[0.218963623046875,0.48089599609375],"type":"VEC2"},{"bufferView":18,"componentType":5126,"count":36,"max":[-0.25,0.25,-0.125],"min":[-0.3125,0.0625,-0.3125],"type":"VEC3"},{"bufferView":19,"componentType":5126,"count":36,"max":[1,1,1],"min":[-1,-1,-1],"type":"VEC3"},{"bufferView":20,"componentType":5126,"count":36,"max":[0.109161376953125,0.99957275390625],"min":[0.000213623046875,0.83636474609375],"type":"VEC2"},{"bufferView":21,"componentType":5126,"count":36,"max":[0.3125,0.25,-0.125],"min":[0.25,0.0625,-0.3125],"type":"VEC3"},{"bufferView":22,"componentType":5126,"count":36,"max":[1,1,1],"min":[-1,-1,-1],"type":"VEC3"},{"bufferView":23,"componentType":5126,"count":36,"max":[0.109161376953125,0.99957275390625],"min":[0.000213623046875,0.83636474609375],"type":"VEC2"},{"bufferView":24,"componentType":5126,"count":36,"max":[0.3125,0.5,0.875],"min":[-0.3125,-0.5,0.375],"type":"VEC3"},{"bufferView":25,"componentType":5126,"count":36,"max":[1,1,1],"min":[-1,-1,-1],"type":"VEC3"},{"bufferView":26,"componentType":5126,"count":36,"max":[0.874786376953125,0.78082275390625],"min":[0.383026123046875,0.12542724609375],"type":"VEC2"}],"materials":[{"pbrMetallicRoughness":{"metallicFactor":0,"roughnessFactor":1,"baseColorTexture":{"index":0}},"alphaMode":"MASK","alphaCutoff":0.05,"doubleSided":true}],"textures":[{"sampler":0,"source":0,"name":"pig.png"}],"samplers":[{"magFilter":9728,"minFilter":9728,"wrapS":33071,"wrapT":33071}],"images":[{"mimeType":"image/png","uri":"data:image/png;base64,"}],"meshes":[{"primitives":[{"mode":4,"attributes":{"POSITION":0,"NORMAL":1,"TEXCOORD_0":2},"material":0}]},{"primitives":[{"mode":4,"attributes":{"POSITION":3,"NORMAL":4,"TEXCOORD_0":5},"material":0}]},{"primitives":[{"mode":4,"attributes":{"POSITION":6,"NORMAL":7,"TEXCOORD_0":8},"material":0}]},{"primitives":[{"mode":4,"attributes":{"POSITION":9,"NORMAL":10,"TEXCOORD_0":11},"material":0}]},{"primitives":[{"mode":4,"attributes":{"POSITION":12,"NORMAL":13,"TEXCOORD_0":14},"material":0}]},{"primitives":[{"mode":4,"attributes":{"POSITION":15,"NORMAL":16,"TEXCOORD_0":17},"material":0}]},{"primitives":[{"mode":4,"attributes":{"POSITION":18,"NORMAL":19,"TEXCOORD_0":20},"material":0}]},{"primitives":[{"mode":4,"attributes":{"POSITION":21,"NORMAL":22,"TEXCOORD_0":23},"material":0}]},{"primitives":[{"mode":4,"attributes":{"POSITION":24,"NORMAL":25,"TEXCOORD_0":26},"material":0}]}]}